# xmcd
#
# Track frame offsets:
#  150
#  12178
#  27105
#  42940
#  54598
#  67830
#  80495
#  96995
#  107753
#  122620
#  137530
#  153513
#
# Disc length: 2211 seconds
#
# Revision: 0
# Processed by: cddbd v1.4PL0 Copyright (c) Steve Scherf et al.
# Submitted via: AltoMP3_Maker 3.0
#
DISCID=9108a10c
DTITLE=Jerry Reed - All Time Greatest Hits (2)
DYEAR=1900
DGENRE=
TTITLE0=Alabama Wild Man
TTITLE1=Lord Mr. Ford
TTITLE2=The Uptown Poker Club
TTITLE3=The Crude Oil Blues
TTITLE4=A Good Woman's Love
TTITLE5=East Bound And Down
TTITLE6=(I Love You) What Can I Say
TTITLE7=Sugar Foot Rag
TTITLE8=She Got The Goldmine (I Got The Shaft)
TTITLE9=The Bird
TTITLE10=Down On The Corner
TTITLE11=Good Ole Boys
EXTD=
EXTT0=
EXTT1=
EXTT2=
EXTT3=
EXTT4=
EXTT5=
EXTT6=
EXTT7=
EXTT8=
EXTT9=
EXTT10=
EXTT11=
PLAYORDER=
